<svg xmlns="http://www.w3.org/2000/svg" width="256" height="256" viewBox="0 0 256 256" fill="#000000">
  <path d="M256 173.851c0 45.37-36.779 82.149-82.149 82.149H0V82.15C0 36.78 36.78 0 82.15 0H256v173.851zM95.565 148.775c-1.894.153-3.82.24-5.774.24H19.105v87.881h126.818l-50.358-88.121zm44.02-129.67c15.164 13.63 24.714 33.392 24.714 55.402 0 32.243-20.479 59.681-49.128 70.06l52.766 92.329h5.914c34.818 0 63.045-28.227 63.045-63.045V19.105h-97.311zm-57.436 0c-34.818 0-63.044 28.226-63.044 63.044v47.761H89.79c30.598 0 55.403-24.804 55.403-55.403 0-30.598-24.805-55.403-55.403-55.403h-7.642z" fill="currentColor"/>
</svg>