<svg xmlns="http://www.w3.org/2000/svg" width="256" height="256" viewBox="0 0 256 256" fill="#000000">
  <path d="M256 176c0 44.183-35.817 80-80 80H0V80C0 35.817 35.817 0 80 0h176v176zM120.977 8C144.149 19.964 160 44.124 160 72c0 33.677-23.124 61.945-54.359 69.812L166.328 248H176c39.765 0 72-32.235 72-72V8H120.977zM97.312 143.375c-3.05.394-6.155.625-9.312.625H8v104h149.102l-59.79-104.625zM80 8C40.236 8 8 40.236 8 80v56h80c35.346 0 64-28.654 64-64 0-35.346-28.654-64-64-64h-8z" fill="currentColor"/>
</svg>