<!-- rnzpowered Logo V1 (Legacy) -->
<svg xmlns="http://www.w3.org/2000/svg" width="256" height="256" viewBox="0 0 256 256" fill="#000000">
  <path d="M256 176c0 44.183-35.817 80-80 80H0V80C0 35.817 35.817 0 80 0h176v176zM116.07 8c.738.364 1.476.737 2.211 1.125 11.601 6.083 20.669 14.584 27.211 25.5 6.629 10.917 9.946 23.708 9.946 38.375 0 14.5-3.317 27.208-9.946 38.125-6.542 10.832-15.61 19.292-27.211 25.375-4.609 2.402-9.503 4.31-14.672 5.75L163.477 248H176c39.764 0 72-32.236 72-72V8H116.07zM95.586 144.062c-5.417.951-11.109 1.438-17.078 1.438H8.188c-.063 0-.126-.021-.188-.023V248h146.047L96.102 145.617a4.105 4.105 0 0 1-.516-1.555zM79.5 8.008C39.966 8.277 8 40.402 8 80v57.516c.062-.003.125-.016.188-.016h70.32c13.431 0 25.294-2.667 35.586-8 10.292-5.333 18.359-12.834 24.203-22.5 5.844-9.667 8.765-21 8.765-34 0-13.083-2.921-24.5-8.765-34.25-5.844-9.75-13.911-17.292-24.203-22.625-10.038-5.283-21.57-7.986-34.594-8.117z" fill="currentColor" />
</svg>